G04 #@! TF.FileFunction,Legend,Top*
%FSLAX46Y46*%
G04 Gerber Fmt 4.6, Leading zero omitted, Abs format (unit mm)*
G04 Created by KiCad (PCBNEW 4.0.2+dfsg1-stable) date lun 19 jun 2017 14:04:39 CEST*
%MOMM*%
G01*
G04 APERTURE LIST*
%ADD10C,0.100000*%
%ADD11C,0.150000*%
G04 APERTURE END LIST*
D10*
D11*
X118151000Y-96715000D02*
X123149000Y-96715000D01*
X118159000Y-96575000D02*
X120496000Y-96575000D01*
X120804000Y-96575000D02*
X123141000Y-96575000D01*
X118175000Y-96435000D02*
X120177000Y-96435000D01*
X121123000Y-96435000D02*
X123125000Y-96435000D01*
X118199000Y-96295000D02*
X120030000Y-96295000D01*
X121270000Y-96295000D02*
X123101000Y-96295000D01*
X118232000Y-96155000D02*
X119938000Y-96155000D01*
X121362000Y-96155000D02*
X123068000Y-96155000D01*
X118273000Y-96015000D02*
X119882000Y-96015000D01*
X121418000Y-96015000D02*
X123027000Y-96015000D01*
X118323000Y-95875000D02*
X119855000Y-95875000D01*
X121445000Y-95875000D02*
X122977000Y-95875000D01*
X118384000Y-95735000D02*
X119852000Y-95735000D01*
X121448000Y-95735000D02*
X122916000Y-95735000D01*
X118454000Y-95595000D02*
X119874000Y-95595000D01*
X121426000Y-95595000D02*
X122846000Y-95595000D01*
X118536000Y-95455000D02*
X119924000Y-95455000D01*
X121376000Y-95455000D02*
X122764000Y-95455000D01*
X118631000Y-95315000D02*
X120006000Y-95315000D01*
X121294000Y-95315000D02*
X122669000Y-95315000D01*
X118742000Y-95175000D02*
X120138000Y-95175000D01*
X121162000Y-95175000D02*
X122558000Y-95175000D01*
X118870000Y-95035000D02*
X120385000Y-95035000D01*
X120915000Y-95035000D02*
X122430000Y-95035000D01*
X119019000Y-94895000D02*
X122281000Y-94895000D01*
X119198000Y-94755000D02*
X122102000Y-94755000D01*
X119417000Y-94615000D02*
X121883000Y-94615000D01*
X119706000Y-94475000D02*
X121594000Y-94475000D01*
X120178000Y-94335000D02*
X121122000Y-94335000D01*
X121450000Y-95790000D02*
G75*
G03X121450000Y-95790000I-800000J0D01*
G01*
X123187500Y-96790000D02*
G75*
G03X123187500Y-96790000I-2537500J0D01*
G01*
X148440000Y-93820000D02*
X148440000Y-103980000D01*
X149710000Y-93820000D02*
X142090000Y-93820000D01*
X142090000Y-93820000D02*
X142090000Y-103980000D01*
X142090000Y-103980000D02*
X149710000Y-103980000D01*
X149710000Y-103980000D02*
X149710000Y-93820000D01*
X102060000Y-103980000D02*
X102060000Y-93820000D01*
X100790000Y-103980000D02*
X108410000Y-103980000D01*
X108410000Y-103980000D02*
X108410000Y-93820000D01*
X108410000Y-93820000D02*
X100790000Y-93820000D01*
X100790000Y-93820000D02*
X100790000Y-103980000D01*
X136160000Y-110270000D02*
X131080000Y-110270000D01*
X131080000Y-110270000D02*
X131080000Y-107730000D01*
X131080000Y-107730000D02*
X136160000Y-107730000D01*
X136160000Y-107730000D02*
X136160000Y-110270000D01*
X136160000Y-109000000D02*
X137430000Y-109000000D01*
X131080000Y-109000000D02*
X129810000Y-109000000D01*
X117460000Y-110470000D02*
X112380000Y-110470000D01*
X112380000Y-110470000D02*
X112380000Y-107930000D01*
X112380000Y-107930000D02*
X117460000Y-107930000D01*
X117460000Y-107930000D02*
X117460000Y-110470000D01*
X117460000Y-109200000D02*
X118730000Y-109200000D01*
X112380000Y-109200000D02*
X111110000Y-109200000D01*
X113630000Y-102760000D02*
X113630000Y-97680000D01*
X113630000Y-97680000D02*
X116170000Y-97680000D01*
X116170000Y-97680000D02*
X116170000Y-102760000D01*
X116170000Y-102760000D02*
X113630000Y-102760000D01*
X114900000Y-102760000D02*
X114900000Y-104030000D01*
X114900000Y-97680000D02*
X114900000Y-96410000D01*
X109450000Y-102550000D02*
X109450000Y-99550000D01*
X111950000Y-99550000D02*
X111950000Y-102550000D01*
X133391000Y-103065000D02*
X138389000Y-103065000D01*
X133399000Y-102925000D02*
X135736000Y-102925000D01*
X136044000Y-102925000D02*
X138381000Y-102925000D01*
X133415000Y-102785000D02*
X135417000Y-102785000D01*
X136363000Y-102785000D02*
X138365000Y-102785000D01*
X133439000Y-102645000D02*
X135270000Y-102645000D01*
X136510000Y-102645000D02*
X138341000Y-102645000D01*
X133472000Y-102505000D02*
X135178000Y-102505000D01*
X136602000Y-102505000D02*
X138308000Y-102505000D01*
X133513000Y-102365000D02*
X135122000Y-102365000D01*
X136658000Y-102365000D02*
X138267000Y-102365000D01*
X133563000Y-102225000D02*
X135095000Y-102225000D01*
X136685000Y-102225000D02*
X138217000Y-102225000D01*
X133624000Y-102085000D02*
X135092000Y-102085000D01*
X136688000Y-102085000D02*
X138156000Y-102085000D01*
X133694000Y-101945000D02*
X135114000Y-101945000D01*
X136666000Y-101945000D02*
X138086000Y-101945000D01*
X133776000Y-101805000D02*
X135164000Y-101805000D01*
X136616000Y-101805000D02*
X138004000Y-101805000D01*
X133871000Y-101665000D02*
X135246000Y-101665000D01*
X136534000Y-101665000D02*
X137909000Y-101665000D01*
X133982000Y-101525000D02*
X135378000Y-101525000D01*
X136402000Y-101525000D02*
X137798000Y-101525000D01*
X134110000Y-101385000D02*
X135625000Y-101385000D01*
X136155000Y-101385000D02*
X137670000Y-101385000D01*
X134259000Y-101245000D02*
X137521000Y-101245000D01*
X134438000Y-101105000D02*
X137342000Y-101105000D01*
X134657000Y-100965000D02*
X137123000Y-100965000D01*
X134946000Y-100825000D02*
X136834000Y-100825000D01*
X135418000Y-100685000D02*
X136362000Y-100685000D01*
X136690000Y-102140000D02*
G75*
G03X136690000Y-102140000I-800000J0D01*
G01*
X138427500Y-103140000D02*
G75*
G03X138427500Y-103140000I-2537500J0D01*
G01*
X117207143Y-97909047D02*
X117254762Y-97956666D01*
X117302381Y-98099523D01*
X117302381Y-98194761D01*
X117254762Y-98337619D01*
X117159524Y-98432857D01*
X117064286Y-98480476D01*
X116873810Y-98528095D01*
X116730952Y-98528095D01*
X116540476Y-98480476D01*
X116445238Y-98432857D01*
X116350000Y-98337619D01*
X116302381Y-98194761D01*
X116302381Y-98099523D01*
X116350000Y-97956666D01*
X116397619Y-97909047D01*
X117302381Y-96956666D02*
X117302381Y-97528095D01*
X117302381Y-97242381D02*
X116302381Y-97242381D01*
X116445238Y-97337619D01*
X116540476Y-97432857D01*
X116588095Y-97528095D01*
X116302381Y-96337619D02*
X116302381Y-96242380D01*
X116350000Y-96147142D01*
X116397619Y-96099523D01*
X116492857Y-96051904D01*
X116683333Y-96004285D01*
X116921429Y-96004285D01*
X117111905Y-96051904D01*
X117207143Y-96099523D01*
X117254762Y-96147142D01*
X117302381Y-96242380D01*
X117302381Y-96337619D01*
X117254762Y-96432857D01*
X117207143Y-96480476D01*
X117111905Y-96528095D01*
X116921429Y-96575714D01*
X116683333Y-96575714D01*
X116492857Y-96528095D01*
X116397619Y-96480476D01*
X116350000Y-96432857D01*
X116302381Y-96337619D01*
X117302381Y-95051904D02*
X117302381Y-95623333D01*
X117302381Y-95337619D02*
X116302381Y-95337619D01*
X116445238Y-95432857D01*
X116540476Y-95528095D01*
X116588095Y-95623333D01*
X141272381Y-100590476D02*
X140272381Y-100590476D01*
X140272381Y-100209523D01*
X140320000Y-100114285D01*
X140367619Y-100066666D01*
X140462857Y-100019047D01*
X140605714Y-100019047D01*
X140700952Y-100066666D01*
X140748571Y-100114285D01*
X140796190Y-100209523D01*
X140796190Y-100590476D01*
X141272381Y-99066666D02*
X141272381Y-99638095D01*
X141272381Y-99352381D02*
X140272381Y-99352381D01*
X140415238Y-99447619D01*
X140510476Y-99542857D01*
X140558095Y-99638095D01*
X140272381Y-98447619D02*
X140272381Y-98352380D01*
X140320000Y-98257142D01*
X140367619Y-98209523D01*
X140462857Y-98161904D01*
X140653333Y-98114285D01*
X140891429Y-98114285D01*
X141081905Y-98161904D01*
X141177143Y-98209523D01*
X141224762Y-98257142D01*
X141272381Y-98352380D01*
X141272381Y-98447619D01*
X141224762Y-98542857D01*
X141177143Y-98590476D01*
X141081905Y-98638095D01*
X140891429Y-98685714D01*
X140653333Y-98685714D01*
X140462857Y-98638095D01*
X140367619Y-98590476D01*
X140320000Y-98542857D01*
X140272381Y-98447619D01*
X141272381Y-97161904D02*
X141272381Y-97733333D01*
X141272381Y-97447619D02*
X140272381Y-97447619D01*
X140415238Y-97542857D01*
X140510476Y-97638095D01*
X140558095Y-97733333D01*
X115152381Y-98290476D02*
X114152381Y-98290476D01*
X114152381Y-97909523D01*
X114200000Y-97814285D01*
X114247619Y-97766666D01*
X114342857Y-97719047D01*
X114485714Y-97719047D01*
X114580952Y-97766666D01*
X114628571Y-97814285D01*
X114676190Y-97909523D01*
X114676190Y-98290476D01*
X115152381Y-96766666D02*
X115152381Y-97338095D01*
X115152381Y-97052381D02*
X114152381Y-97052381D01*
X114295238Y-97147619D01*
X114390476Y-97242857D01*
X114438095Y-97338095D01*
X114152381Y-96147619D02*
X114152381Y-96052380D01*
X114200000Y-95957142D01*
X114247619Y-95909523D01*
X114342857Y-95861904D01*
X114533333Y-95814285D01*
X114771429Y-95814285D01*
X114961905Y-95861904D01*
X115057143Y-95909523D01*
X115104762Y-95957142D01*
X115152381Y-96052380D01*
X115152381Y-96147619D01*
X115104762Y-96242857D01*
X115057143Y-96290476D01*
X114961905Y-96338095D01*
X114771429Y-96385714D01*
X114533333Y-96385714D01*
X114342857Y-96338095D01*
X114247619Y-96290476D01*
X114200000Y-96242857D01*
X114152381Y-96147619D01*
X114247619Y-95433333D02*
X114200000Y-95385714D01*
X114152381Y-95290476D01*
X114152381Y-95052380D01*
X114200000Y-94957142D01*
X114247619Y-94909523D01*
X114342857Y-94861904D01*
X114438095Y-94861904D01*
X114580952Y-94909523D01*
X115152381Y-95480952D01*
X115152381Y-94861904D01*
X131180953Y-106852381D02*
X130847619Y-106376190D01*
X130609524Y-106852381D02*
X130609524Y-105852381D01*
X130990477Y-105852381D01*
X131085715Y-105900000D01*
X131133334Y-105947619D01*
X131180953Y-106042857D01*
X131180953Y-106185714D01*
X131133334Y-106280952D01*
X131085715Y-106328571D01*
X130990477Y-106376190D01*
X130609524Y-106376190D01*
X132133334Y-106852381D02*
X131561905Y-106852381D01*
X131847619Y-106852381D02*
X131847619Y-105852381D01*
X131752381Y-105995238D01*
X131657143Y-106090476D01*
X131561905Y-106138095D01*
X132752381Y-105852381D02*
X132847620Y-105852381D01*
X132942858Y-105900000D01*
X132990477Y-105947619D01*
X133038096Y-106042857D01*
X133085715Y-106233333D01*
X133085715Y-106471429D01*
X133038096Y-106661905D01*
X132990477Y-106757143D01*
X132942858Y-106804762D01*
X132847620Y-106852381D01*
X132752381Y-106852381D01*
X132657143Y-106804762D01*
X132609524Y-106757143D01*
X132561905Y-106661905D01*
X132514286Y-106471429D01*
X132514286Y-106233333D01*
X132561905Y-106042857D01*
X132609524Y-105947619D01*
X132657143Y-105900000D01*
X132752381Y-105852381D01*
X134038096Y-106852381D02*
X133466667Y-106852381D01*
X133752381Y-106852381D02*
X133752381Y-105852381D01*
X133657143Y-105995238D01*
X133561905Y-106090476D01*
X133466667Y-106138095D01*
X116480953Y-107152381D02*
X116147619Y-106676190D01*
X115909524Y-107152381D02*
X115909524Y-106152381D01*
X116290477Y-106152381D01*
X116385715Y-106200000D01*
X116433334Y-106247619D01*
X116480953Y-106342857D01*
X116480953Y-106485714D01*
X116433334Y-106580952D01*
X116385715Y-106628571D01*
X116290477Y-106676190D01*
X115909524Y-106676190D01*
X117433334Y-107152381D02*
X116861905Y-107152381D01*
X117147619Y-107152381D02*
X117147619Y-106152381D01*
X117052381Y-106295238D01*
X116957143Y-106390476D01*
X116861905Y-106438095D01*
X118052381Y-106152381D02*
X118147620Y-106152381D01*
X118242858Y-106200000D01*
X118290477Y-106247619D01*
X118338096Y-106342857D01*
X118385715Y-106533333D01*
X118385715Y-106771429D01*
X118338096Y-106961905D01*
X118290477Y-107057143D01*
X118242858Y-107104762D01*
X118147620Y-107152381D01*
X118052381Y-107152381D01*
X117957143Y-107104762D01*
X117909524Y-107057143D01*
X117861905Y-106961905D01*
X117814286Y-106771429D01*
X117814286Y-106533333D01*
X117861905Y-106342857D01*
X117909524Y-106247619D01*
X117957143Y-106200000D01*
X118052381Y-106152381D01*
X118766667Y-106247619D02*
X118814286Y-106200000D01*
X118909524Y-106152381D01*
X119147620Y-106152381D01*
X119242858Y-106200000D01*
X119290477Y-106247619D01*
X119338096Y-106342857D01*
X119338096Y-106438095D01*
X119290477Y-106580952D01*
X118719048Y-107152381D01*
X119338096Y-107152381D01*
X111852261Y-101090127D02*
X111376070Y-101423461D01*
X111852261Y-101661556D02*
X110852261Y-101661556D01*
X110852261Y-101280603D01*
X110899880Y-101185365D01*
X110947499Y-101137746D01*
X111042737Y-101090127D01*
X111185594Y-101090127D01*
X111280832Y-101137746D01*
X111328451Y-101185365D01*
X111376070Y-101280603D01*
X111376070Y-101661556D01*
X111852261Y-100137746D02*
X111852261Y-100709175D01*
X111852261Y-100423461D02*
X110852261Y-100423461D01*
X110995118Y-100518699D01*
X111090356Y-100613937D01*
X111137975Y-100709175D01*
X110852261Y-99518699D02*
X110852261Y-99423460D01*
X110899880Y-99328222D01*
X110947499Y-99280603D01*
X111042737Y-99232984D01*
X111233213Y-99185365D01*
X111471309Y-99185365D01*
X111661785Y-99232984D01*
X111757023Y-99280603D01*
X111804642Y-99328222D01*
X111852261Y-99423460D01*
X111852261Y-99518699D01*
X111804642Y-99613937D01*
X111757023Y-99661556D01*
X111661785Y-99709175D01*
X111471309Y-99756794D01*
X111233213Y-99756794D01*
X111042737Y-99709175D01*
X110947499Y-99661556D01*
X110899880Y-99613937D01*
X110852261Y-99518699D01*
X110852261Y-98852032D02*
X110852261Y-98232984D01*
X111233213Y-98566318D01*
X111233213Y-98423460D01*
X111280832Y-98328222D01*
X111328451Y-98280603D01*
X111423690Y-98232984D01*
X111661785Y-98232984D01*
X111757023Y-98280603D01*
X111804642Y-98328222D01*
X111852261Y-98423460D01*
X111852261Y-98709175D01*
X111804642Y-98804413D01*
X111757023Y-98852032D01*
X108557143Y-102169047D02*
X108604762Y-102216666D01*
X108652381Y-102359523D01*
X108652381Y-102454761D01*
X108604762Y-102597619D01*
X108509524Y-102692857D01*
X108414286Y-102740476D01*
X108223810Y-102788095D01*
X108080952Y-102788095D01*
X107890476Y-102740476D01*
X107795238Y-102692857D01*
X107700000Y-102597619D01*
X107652381Y-102454761D01*
X107652381Y-102359523D01*
X107700000Y-102216666D01*
X107747619Y-102169047D01*
X108652381Y-101216666D02*
X108652381Y-101788095D01*
X108652381Y-101502381D02*
X107652381Y-101502381D01*
X107795238Y-101597619D01*
X107890476Y-101692857D01*
X107938095Y-101788095D01*
X107652381Y-100597619D02*
X107652381Y-100502380D01*
X107700000Y-100407142D01*
X107747619Y-100359523D01*
X107842857Y-100311904D01*
X108033333Y-100264285D01*
X108271429Y-100264285D01*
X108461905Y-100311904D01*
X108557143Y-100359523D01*
X108604762Y-100407142D01*
X108652381Y-100502380D01*
X108652381Y-100597619D01*
X108604762Y-100692857D01*
X108557143Y-100740476D01*
X108461905Y-100788095D01*
X108271429Y-100835714D01*
X108033333Y-100835714D01*
X107842857Y-100788095D01*
X107747619Y-100740476D01*
X107700000Y-100692857D01*
X107652381Y-100597619D01*
X107747619Y-99883333D02*
X107700000Y-99835714D01*
X107652381Y-99740476D01*
X107652381Y-99502380D01*
X107700000Y-99407142D01*
X107747619Y-99359523D01*
X107842857Y-99311904D01*
X107938095Y-99311904D01*
X108080952Y-99359523D01*
X108652381Y-99930952D01*
X108652381Y-99311904D01*
X132447143Y-103306666D02*
X132494762Y-103354285D01*
X132542381Y-103497142D01*
X132542381Y-103592380D01*
X132494762Y-103735238D01*
X132399524Y-103830476D01*
X132304286Y-103878095D01*
X132113810Y-103925714D01*
X131970952Y-103925714D01*
X131780476Y-103878095D01*
X131685238Y-103830476D01*
X131590000Y-103735238D01*
X131542381Y-103592380D01*
X131542381Y-103497142D01*
X131590000Y-103354285D01*
X131637619Y-103306666D01*
X132542381Y-102354285D02*
X132542381Y-102925714D01*
X132542381Y-102640000D02*
X131542381Y-102640000D01*
X131685238Y-102735238D01*
X131780476Y-102830476D01*
X131828095Y-102925714D01*
M02*
