M48
;DRILL file {KiCad 4.0.2+dfsg1-stable} date lun 19 jun 2017 13:44:02 CEST
;FORMAT={-:-/ absolute / inch / decimal}
FMAT,2
INCH,TZ
T1C0.031
T2C0.032
T3C0.039
T4C0.040
T5C0.060
%
G90
G05
M72
T1
X4.3583Y-4.0276
X4.75Y-3.7713
X4.75Y-3.85
X5.35Y-4.0213
X5.35Y-4.1
T2
X4.3583Y-3.9291
T3
X4.3244Y-4.2992
X4.5236Y-3.7457
X4.5236Y-4.1457
X4.7244Y-4.2992
X5.0606Y-4.2913
X5.4606Y-4.2913
T4
X4.2205Y-3.5748
X4.2205Y-4.4748
X4.3205Y-3.5748
X4.3205Y-4.4748
X4.4205Y-3.5748
X4.4205Y-4.4748
X4.5205Y-3.5748
X4.5205Y-4.4748
X4.6205Y-3.5748
X4.6205Y-4.4748
X4.7205Y-3.5748
X4.7205Y-4.4748
X4.8205Y-3.5748
X4.8205Y-4.4748
X4.9205Y-3.5748
X4.9205Y-4.4748
X5.0205Y-3.5748
X5.0205Y-4.4748
X5.1205Y-3.5748
X5.1205Y-4.4748
X5.2205Y-3.5748
X5.2205Y-4.4748
X5.3205Y-3.5748
X5.3205Y-4.4748
X5.4205Y-3.5748
X5.4205Y-4.4748
X5.5205Y-3.5748
X5.5205Y-4.4748
X5.6205Y-3.5748
X5.6205Y-4.4748
T5
X4.1181Y-3.7937
X4.1181Y-3.9937
X5.7441Y-3.7937
X5.7441Y-3.9937
T0
M30
