G04 #@! TF.FileFunction,Copper,L1,Top,Signal*
%FSLAX46Y46*%
G04 Gerber Fmt 4.6, Leading zero omitted, Abs format (unit mm)*
G04 Created by KiCad (PCBNEW 4.0.2+dfsg1-stable) date lun 19 jun 2017 14:04:39 CEST*
%MOMM*%
G01*
G04 APERTURE LIST*
%ADD10C,0.100000*%
%ADD11R,1.600000X1.600000*%
%ADD12C,1.600000*%
%ADD13R,2.540000X2.540000*%
%ADD14C,2.540000*%
%ADD15C,1.998980*%
%ADD16O,1.727200X2.032000*%
%ADD17R,1.300000X1.300000*%
%ADD18C,1.300000*%
G04 APERTURE END LIST*
D10*
D11*
X120650000Y-97790000D03*
D12*
X120650000Y-95790000D03*
D13*
X145900000Y-101440000D03*
D14*
X145900000Y-96360000D03*
D13*
X104600000Y-96360000D03*
D14*
X104600000Y-101440000D03*
D15*
X138700000Y-109000000D03*
X128540000Y-109000000D03*
X120000000Y-109200000D03*
X109840000Y-109200000D03*
X114900000Y-105300000D03*
X114900000Y-95140000D03*
D16*
X107200000Y-90800000D03*
X109740000Y-90800000D03*
X112280000Y-90800000D03*
X114820000Y-90800000D03*
X117360000Y-90800000D03*
X119900000Y-90800000D03*
X122440000Y-90800000D03*
X124980000Y-90800000D03*
X127520000Y-90800000D03*
X130060000Y-90800000D03*
X132600000Y-90800000D03*
X135140000Y-90800000D03*
X137680000Y-90800000D03*
X140220000Y-90800000D03*
X142760000Y-90800000D03*
X107200000Y-113660000D03*
X137680000Y-113660000D03*
X140220000Y-113660000D03*
X135140000Y-113660000D03*
X119900000Y-113660000D03*
X117360000Y-113660000D03*
X122440000Y-113660000D03*
X142760000Y-113660000D03*
X127520000Y-113660000D03*
X124980000Y-113660000D03*
X130060000Y-113660000D03*
X132600000Y-113660000D03*
X112280000Y-113660000D03*
X114820000Y-113660000D03*
X109740000Y-113660000D03*
D11*
X110700000Y-102300000D03*
D12*
X110700000Y-99800000D03*
D17*
X135890000Y-104140000D03*
D18*
X135890000Y-102140000D03*
M02*
