G04 #@! TF.FileFunction,Legend,Bot*
%FSLAX46Y46*%
G04 Gerber Fmt 4.6, Leading zero omitted, Abs format (unit mm)*
G04 Created by KiCad (PCBNEW 4.0.2+dfsg1-stable) date lun 19 jun 2017 14:04:39 CEST*
%MOMM*%
G01*
G04 APERTURE LIST*
%ADD10C,0.100000*%
%ADD11C,0.150000*%
G04 APERTURE END LIST*
D10*
D11*
X108470000Y-89530000D02*
X144030000Y-89530000D01*
X144030000Y-89530000D02*
X144030000Y-92070000D01*
X144030000Y-92070000D02*
X108470000Y-92070000D01*
X105650000Y-92350000D02*
X107200000Y-92350000D01*
X108470000Y-92070000D02*
X108470000Y-89530000D01*
X107200000Y-89250000D02*
X105650000Y-89250000D01*
X105650000Y-89250000D02*
X105650000Y-92350000D01*
X144030000Y-112390000D02*
X144030000Y-114930000D01*
X105930000Y-112390000D02*
X144030000Y-112390000D01*
X105930000Y-114930000D02*
X105930000Y-112390000D01*
X144030000Y-114930000D02*
X105930000Y-114930000D01*
X119332381Y-100515714D02*
X120141905Y-100515714D01*
X120237143Y-100563333D01*
X120284762Y-100610952D01*
X120332381Y-100706190D01*
X120332381Y-100896667D01*
X120284762Y-100991905D01*
X120237143Y-101039524D01*
X120141905Y-101087143D01*
X119332381Y-101087143D01*
X120332381Y-102087143D02*
X120332381Y-101515714D01*
X120332381Y-101801428D02*
X119332381Y-101801428D01*
X119475238Y-101706190D01*
X119570476Y-101610952D01*
X119618095Y-101515714D01*
X119332381Y-102706190D02*
X119332381Y-102801429D01*
X119380000Y-102896667D01*
X119427619Y-102944286D01*
X119522857Y-102991905D01*
X119713333Y-103039524D01*
X119951429Y-103039524D01*
X120141905Y-102991905D01*
X120237143Y-102944286D01*
X120284762Y-102896667D01*
X120332381Y-102801429D01*
X120332381Y-102706190D01*
X120284762Y-102610952D01*
X120237143Y-102563333D01*
X120141905Y-102515714D01*
X119951429Y-102468095D01*
X119713333Y-102468095D01*
X119522857Y-102515714D01*
X119427619Y-102563333D01*
X119380000Y-102610952D01*
X119332381Y-102706190D01*
X120332381Y-103991905D02*
X120332381Y-103420476D01*
X120332381Y-103706190D02*
X119332381Y-103706190D01*
X119475238Y-103610952D01*
X119570476Y-103515714D01*
X119618095Y-103420476D01*
M02*
