G04 #@! TF.FileFunction,Copper,L2,Bot,Signal*
%FSLAX46Y46*%
G04 Gerber Fmt 4.6, Leading zero omitted, Abs format (unit mm)*
G04 Created by KiCad (PCBNEW 4.0.2+dfsg1-stable) date lun 19 jun 2017 14:04:39 CEST*
%MOMM*%
G01*
G04 APERTURE LIST*
%ADD10C,0.100000*%
%ADD11R,1.600000X1.600000*%
%ADD12C,1.600000*%
%ADD13R,2.540000X2.540000*%
%ADD14C,2.540000*%
%ADD15C,1.998980*%
%ADD16O,1.727200X2.032000*%
%ADD17R,1.300000X1.300000*%
%ADD18C,1.300000*%
%ADD19C,1.200000*%
%ADD20C,0.254000*%
G04 APERTURE END LIST*
D10*
D11*
X120650000Y-97790000D03*
D12*
X120650000Y-95790000D03*
D13*
X145900000Y-101440000D03*
D14*
X145900000Y-96360000D03*
D13*
X104600000Y-96360000D03*
D14*
X104600000Y-101440000D03*
D15*
X138700000Y-109000000D03*
X128540000Y-109000000D03*
X120000000Y-109200000D03*
X109840000Y-109200000D03*
X114900000Y-105300000D03*
X114900000Y-95140000D03*
D16*
X107200000Y-90800000D03*
X109740000Y-90800000D03*
X112280000Y-90800000D03*
X114820000Y-90800000D03*
X117360000Y-90800000D03*
X119900000Y-90800000D03*
X122440000Y-90800000D03*
X124980000Y-90800000D03*
X127520000Y-90800000D03*
X130060000Y-90800000D03*
X132600000Y-90800000D03*
X135140000Y-90800000D03*
X137680000Y-90800000D03*
X140220000Y-90800000D03*
X142760000Y-90800000D03*
X107200000Y-113660000D03*
X137680000Y-113660000D03*
X140220000Y-113660000D03*
X135140000Y-113660000D03*
X119900000Y-113660000D03*
X117360000Y-113660000D03*
X122440000Y-113660000D03*
X142760000Y-113660000D03*
X127520000Y-113660000D03*
X124980000Y-113660000D03*
X130060000Y-113660000D03*
X132600000Y-113660000D03*
X112280000Y-113660000D03*
X114820000Y-113660000D03*
X109740000Y-113660000D03*
D11*
X110700000Y-102300000D03*
D12*
X110700000Y-99800000D03*
D17*
X135890000Y-104140000D03*
D18*
X135890000Y-102140000D03*
D19*
X120650000Y-97790000D02*
X120650000Y-108550000D01*
X120650000Y-108550000D02*
X120000000Y-109200000D01*
X110700000Y-102300000D02*
X105460000Y-102300000D01*
X105460000Y-102300000D02*
X104600000Y-101440000D01*
X104600000Y-101440000D02*
X104600000Y-102400000D01*
X104600000Y-102400000D02*
X107500000Y-105300000D01*
X107500000Y-105300000D02*
X114900000Y-105300000D01*
X114900000Y-105300000D02*
X116000000Y-105200000D01*
X116000000Y-105200000D02*
X120000000Y-109200000D01*
X120000000Y-109200000D02*
X128340000Y-109200000D01*
X128340000Y-109200000D02*
X128540000Y-109000000D01*
X142760000Y-90800000D02*
X142760000Y-93220000D01*
X142760000Y-93220000D02*
X145900000Y-96360000D01*
X104600000Y-96360000D02*
X107260000Y-96360000D01*
X107260000Y-96360000D02*
X110700000Y-99800000D01*
X104600000Y-96360000D02*
X113680000Y-96360000D01*
X113680000Y-96360000D02*
X114900000Y-95140000D01*
X107200000Y-90800000D02*
X107200000Y-93760000D01*
X107200000Y-93760000D02*
X104600000Y-96360000D01*
X135890000Y-104140000D02*
X135890000Y-106190000D01*
X135890000Y-106190000D02*
X138700000Y-109000000D01*
X138700000Y-109000000D02*
X140800000Y-109000000D01*
X142760000Y-110960000D02*
X142760000Y-113660000D01*
X140800000Y-109000000D02*
X142760000Y-110960000D01*
D20*
G36*
X105815474Y-90041766D02*
X105701400Y-90615255D01*
X105701400Y-90984745D01*
X105815474Y-91558234D01*
X105965000Y-91782015D01*
X105965000Y-93248446D01*
X104770886Y-94442560D01*
X103330000Y-94442560D01*
X103094683Y-94486838D01*
X102878559Y-94625910D01*
X102733569Y-94838110D01*
X102682560Y-95090000D01*
X102682560Y-97630000D01*
X102726838Y-97865317D01*
X102865910Y-98081441D01*
X103078110Y-98226431D01*
X103330000Y-98277440D01*
X105870000Y-98277440D01*
X106105317Y-98233162D01*
X106321441Y-98094090D01*
X106466431Y-97881890D01*
X106517440Y-97630000D01*
X106517440Y-97595000D01*
X106748446Y-97595000D01*
X109283847Y-100130401D01*
X109482757Y-100611800D01*
X109751072Y-100880583D01*
X109664683Y-100896838D01*
X109448559Y-101035910D01*
X109428683Y-101065000D01*
X106505328Y-101065000D01*
X106505330Y-101062735D01*
X106215922Y-100362314D01*
X105680505Y-99825961D01*
X104980590Y-99535332D01*
X104222735Y-99534670D01*
X103522314Y-99824078D01*
X102985961Y-100359495D01*
X102695332Y-101059410D01*
X102694670Y-101817265D01*
X102984078Y-102517686D01*
X103519495Y-103054039D01*
X103603556Y-103088944D01*
X103726723Y-103273277D01*
X106626723Y-106173277D01*
X107027386Y-106440991D01*
X107500000Y-106535000D01*
X113823342Y-106535000D01*
X113972927Y-106684846D01*
X114573453Y-106934206D01*
X115223694Y-106934774D01*
X115764686Y-106711240D01*
X118365411Y-109311965D01*
X118365226Y-109523694D01*
X118613538Y-110124655D01*
X119072927Y-110584846D01*
X119673453Y-110834206D01*
X120323694Y-110834774D01*
X120924655Y-110586462D01*
X121076381Y-110435000D01*
X127733711Y-110435000D01*
X128213453Y-110634206D01*
X128863694Y-110634774D01*
X129464655Y-110386462D01*
X129924846Y-109927073D01*
X130174206Y-109326547D01*
X130174774Y-108676306D01*
X129926462Y-108075345D01*
X129467073Y-107615154D01*
X128866547Y-107365794D01*
X128216306Y-107365226D01*
X127615345Y-107613538D01*
X127263269Y-107965000D01*
X121885000Y-107965000D01*
X121885000Y-101240984D01*
X135170590Y-101240984D01*
X135890000Y-101960395D01*
X136609410Y-101240984D01*
X136553729Y-101010389D01*
X136070922Y-100842378D01*
X135560572Y-100871917D01*
X135226271Y-101010389D01*
X135170590Y-101240984D01*
X121885000Y-101240984D01*
X121885000Y-100043691D01*
X143995000Y-100043691D01*
X143995000Y-101154250D01*
X144153750Y-101313000D01*
X145773000Y-101313000D01*
X145773000Y-99693750D01*
X146027000Y-99693750D01*
X146027000Y-101313000D01*
X147646250Y-101313000D01*
X147805000Y-101154250D01*
X147805000Y-100043691D01*
X147708327Y-99810302D01*
X147529699Y-99631673D01*
X147296310Y-99535000D01*
X146185750Y-99535000D01*
X146027000Y-99693750D01*
X145773000Y-99693750D01*
X145614250Y-99535000D01*
X144503690Y-99535000D01*
X144270301Y-99631673D01*
X144091673Y-99810302D01*
X143995000Y-100043691D01*
X121885000Y-100043691D01*
X121885000Y-99064669D01*
X121901441Y-99054090D01*
X122046431Y-98841890D01*
X122097440Y-98590000D01*
X122097440Y-96990000D01*
X122053162Y-96754683D01*
X121914090Y-96538559D01*
X121907452Y-96534023D01*
X122096965Y-96006777D01*
X122069778Y-95436546D01*
X121903864Y-95035995D01*
X121657745Y-94961861D01*
X120829605Y-95790000D01*
X120843748Y-95804142D01*
X120664143Y-95983748D01*
X120650000Y-95969605D01*
X120635858Y-95983748D01*
X120456252Y-95804142D01*
X120470395Y-95790000D01*
X119642255Y-94961861D01*
X119396136Y-95035995D01*
X119203035Y-95573223D01*
X119230222Y-96143454D01*
X119392384Y-96534947D01*
X119253569Y-96738110D01*
X119202560Y-96990000D01*
X119202560Y-98590000D01*
X119246838Y-98825317D01*
X119385910Y-99041441D01*
X119415000Y-99061317D01*
X119415000Y-106868446D01*
X116873277Y-104326723D01*
X116826209Y-104295273D01*
X116790628Y-104251247D01*
X116627262Y-104162341D01*
X116472614Y-104059009D01*
X116417094Y-104047965D01*
X116367372Y-104020906D01*
X116182418Y-104001285D01*
X116000000Y-103965000D01*
X115944480Y-103976044D01*
X115888188Y-103970072D01*
X115882419Y-103970596D01*
X115827073Y-103915154D01*
X115226547Y-103665794D01*
X114576306Y-103665226D01*
X113975345Y-103913538D01*
X113823619Y-104065000D01*
X108011554Y-104065000D01*
X107481554Y-103535000D01*
X109425331Y-103535000D01*
X109435910Y-103551441D01*
X109648110Y-103696431D01*
X109900000Y-103747440D01*
X111500000Y-103747440D01*
X111735317Y-103703162D01*
X111951441Y-103564090D01*
X112096431Y-103351890D01*
X112147440Y-103100000D01*
X112147440Y-101500000D01*
X112103162Y-101264683D01*
X111964090Y-101048559D01*
X111751890Y-100903569D01*
X111646959Y-100882320D01*
X111915824Y-100613923D01*
X112134750Y-100086691D01*
X112135248Y-99515813D01*
X111917243Y-98988200D01*
X111513923Y-98584176D01*
X111029637Y-98383083D01*
X110241554Y-97595000D01*
X113680000Y-97595000D01*
X114152614Y-97500991D01*
X114553277Y-97233277D01*
X115011965Y-96774589D01*
X115223694Y-96774774D01*
X115824655Y-96526462D01*
X116284846Y-96067073D01*
X116534206Y-95466547D01*
X116534774Y-94816306D01*
X116520705Y-94782255D01*
X119821861Y-94782255D01*
X120650000Y-95610395D01*
X121478139Y-94782255D01*
X121404005Y-94536136D01*
X120866777Y-94343035D01*
X120296546Y-94370222D01*
X119895995Y-94536136D01*
X119821861Y-94782255D01*
X116520705Y-94782255D01*
X116286462Y-94215345D01*
X115827073Y-93755154D01*
X115226547Y-93505794D01*
X114576306Y-93505226D01*
X113975345Y-93753538D01*
X113515154Y-94212927D01*
X113265794Y-94813453D01*
X113265607Y-95027839D01*
X113168446Y-95125000D01*
X107581554Y-95125000D01*
X108073277Y-94633277D01*
X108340991Y-94232614D01*
X108435000Y-93760000D01*
X108435000Y-91782015D01*
X108470000Y-91729634D01*
X108680330Y-92044415D01*
X109166511Y-92369271D01*
X109740000Y-92483345D01*
X110313489Y-92369271D01*
X110799670Y-92044415D01*
X111010000Y-91729634D01*
X111220330Y-92044415D01*
X111706511Y-92369271D01*
X112280000Y-92483345D01*
X112853489Y-92369271D01*
X113339670Y-92044415D01*
X113550000Y-91729634D01*
X113760330Y-92044415D01*
X114246511Y-92369271D01*
X114820000Y-92483345D01*
X115393489Y-92369271D01*
X115879670Y-92044415D01*
X116090000Y-91729634D01*
X116300330Y-92044415D01*
X116786511Y-92369271D01*
X117360000Y-92483345D01*
X117933489Y-92369271D01*
X118419670Y-92044415D01*
X118630000Y-91729634D01*
X118840330Y-92044415D01*
X119326511Y-92369271D01*
X119900000Y-92483345D01*
X120473489Y-92369271D01*
X120959670Y-92044415D01*
X121170000Y-91729634D01*
X121380330Y-92044415D01*
X121866511Y-92369271D01*
X122440000Y-92483345D01*
X123013489Y-92369271D01*
X123499670Y-92044415D01*
X123710000Y-91729634D01*
X123920330Y-92044415D01*
X124406511Y-92369271D01*
X124980000Y-92483345D01*
X125553489Y-92369271D01*
X126039670Y-92044415D01*
X126250000Y-91729634D01*
X126460330Y-92044415D01*
X126946511Y-92369271D01*
X127520000Y-92483345D01*
X128093489Y-92369271D01*
X128579670Y-92044415D01*
X128786461Y-91734931D01*
X129157964Y-92150732D01*
X129685209Y-92404709D01*
X129700974Y-92407358D01*
X129933000Y-92286217D01*
X129933000Y-90927000D01*
X129913000Y-90927000D01*
X129913000Y-90673000D01*
X129933000Y-90673000D01*
X129933000Y-90653000D01*
X130187000Y-90653000D01*
X130187000Y-90673000D01*
X130207000Y-90673000D01*
X130207000Y-90927000D01*
X130187000Y-90927000D01*
X130187000Y-92286217D01*
X130419026Y-92407358D01*
X130434791Y-92404709D01*
X130962036Y-92150732D01*
X131333539Y-91734931D01*
X131540330Y-92044415D01*
X132026511Y-92369271D01*
X132600000Y-92483345D01*
X133173489Y-92369271D01*
X133659670Y-92044415D01*
X133870000Y-91729634D01*
X134080330Y-92044415D01*
X134566511Y-92369271D01*
X135140000Y-92483345D01*
X135713489Y-92369271D01*
X136199670Y-92044415D01*
X136410000Y-91729634D01*
X136620330Y-92044415D01*
X137106511Y-92369271D01*
X137680000Y-92483345D01*
X138253489Y-92369271D01*
X138739670Y-92044415D01*
X138946461Y-91734931D01*
X139317964Y-92150732D01*
X139845209Y-92404709D01*
X139860974Y-92407358D01*
X140093000Y-92286217D01*
X140093000Y-90927000D01*
X140073000Y-90927000D01*
X140073000Y-90673000D01*
X140093000Y-90673000D01*
X140093000Y-90653000D01*
X140347000Y-90653000D01*
X140347000Y-90673000D01*
X140367000Y-90673000D01*
X140367000Y-90927000D01*
X140347000Y-90927000D01*
X140347000Y-92286217D01*
X140579026Y-92407358D01*
X140594791Y-92404709D01*
X141122036Y-92150732D01*
X141493539Y-91734931D01*
X141525000Y-91782015D01*
X141525000Y-93220000D01*
X141619009Y-93692614D01*
X141886723Y-94093277D01*
X143995138Y-96201692D01*
X143994670Y-96737265D01*
X144284078Y-97437686D01*
X144819495Y-97974039D01*
X145519410Y-98264668D01*
X146277265Y-98265330D01*
X146977686Y-97975922D01*
X147514039Y-97440505D01*
X147804668Y-96740590D01*
X147805330Y-95982735D01*
X147515922Y-95282314D01*
X146980505Y-94745961D01*
X146280590Y-94455332D01*
X145741415Y-94454861D01*
X143995000Y-92708446D01*
X143995000Y-91782015D01*
X144144526Y-91558234D01*
X144258600Y-90984745D01*
X144258600Y-90615255D01*
X144144526Y-90041766D01*
X143856029Y-89610000D01*
X149090000Y-89610000D01*
X149090000Y-114890000D01*
X143829302Y-114890000D01*
X144144526Y-114418234D01*
X144258600Y-113844745D01*
X144258600Y-113475255D01*
X144144526Y-112901766D01*
X143995000Y-112677985D01*
X143995000Y-110960000D01*
X143900991Y-110487386D01*
X143633277Y-110086723D01*
X141673277Y-108126723D01*
X141272614Y-107859009D01*
X140800000Y-107765000D01*
X139776658Y-107765000D01*
X139627073Y-107615154D01*
X139026547Y-107365794D01*
X138812161Y-107365607D01*
X137125000Y-105678446D01*
X137125000Y-105058620D01*
X137136431Y-105041890D01*
X137187440Y-104790000D01*
X137187440Y-103490000D01*
X137143162Y-103254683D01*
X137004090Y-103038559D01*
X136890671Y-102961063D01*
X136789018Y-102859410D01*
X137019611Y-102803729D01*
X137187622Y-102320922D01*
X137158083Y-101810572D01*
X137122949Y-101725750D01*
X143995000Y-101725750D01*
X143995000Y-102836309D01*
X144091673Y-103069698D01*
X144270301Y-103248327D01*
X144503690Y-103345000D01*
X145614250Y-103345000D01*
X145773000Y-103186250D01*
X145773000Y-101567000D01*
X146027000Y-101567000D01*
X146027000Y-103186250D01*
X146185750Y-103345000D01*
X147296310Y-103345000D01*
X147529699Y-103248327D01*
X147708327Y-103069698D01*
X147805000Y-102836309D01*
X147805000Y-101725750D01*
X147646250Y-101567000D01*
X146027000Y-101567000D01*
X145773000Y-101567000D01*
X144153750Y-101567000D01*
X143995000Y-101725750D01*
X137122949Y-101725750D01*
X137019611Y-101476271D01*
X136789016Y-101420590D01*
X136069605Y-102140000D01*
X136083748Y-102154142D01*
X135904142Y-102333748D01*
X135890000Y-102319605D01*
X135875858Y-102333748D01*
X135696252Y-102154142D01*
X135710395Y-102140000D01*
X134990984Y-101420590D01*
X134760389Y-101476271D01*
X134592378Y-101959078D01*
X134621917Y-102469428D01*
X134760389Y-102803729D01*
X134990982Y-102859410D01*
X134889320Y-102961072D01*
X134788559Y-103025910D01*
X134643569Y-103238110D01*
X134592560Y-103490000D01*
X134592560Y-104790000D01*
X134636838Y-105025317D01*
X134655000Y-105053542D01*
X134655000Y-106190000D01*
X134749009Y-106662614D01*
X135016723Y-107063277D01*
X137065411Y-109111965D01*
X137065226Y-109323694D01*
X137313538Y-109924655D01*
X137772927Y-110384846D01*
X138373453Y-110634206D01*
X139023694Y-110634774D01*
X139624655Y-110386462D01*
X139776381Y-110235000D01*
X140288446Y-110235000D01*
X141525000Y-111471554D01*
X141525000Y-112677985D01*
X141493539Y-112725069D01*
X141122036Y-112309268D01*
X140594791Y-112055291D01*
X140579026Y-112052642D01*
X140347000Y-112173783D01*
X140347000Y-113533000D01*
X140367000Y-113533000D01*
X140367000Y-113787000D01*
X140347000Y-113787000D01*
X140347000Y-113807000D01*
X140093000Y-113807000D01*
X140093000Y-113787000D01*
X140073000Y-113787000D01*
X140073000Y-113533000D01*
X140093000Y-113533000D01*
X140093000Y-112173783D01*
X139860974Y-112052642D01*
X139845209Y-112055291D01*
X139317964Y-112309268D01*
X138946461Y-112725069D01*
X138739670Y-112415585D01*
X138253489Y-112090729D01*
X137680000Y-111976655D01*
X137106511Y-112090729D01*
X136620330Y-112415585D01*
X136410000Y-112730366D01*
X136199670Y-112415585D01*
X135713489Y-112090729D01*
X135140000Y-111976655D01*
X134566511Y-112090729D01*
X134080330Y-112415585D01*
X133870000Y-112730366D01*
X133659670Y-112415585D01*
X133173489Y-112090729D01*
X132600000Y-111976655D01*
X132026511Y-112090729D01*
X131540330Y-112415585D01*
X131330000Y-112730366D01*
X131119670Y-112415585D01*
X130633489Y-112090729D01*
X130060000Y-111976655D01*
X129486511Y-112090729D01*
X129000330Y-112415585D01*
X128790000Y-112730366D01*
X128579670Y-112415585D01*
X128093489Y-112090729D01*
X127520000Y-111976655D01*
X126946511Y-112090729D01*
X126460330Y-112415585D01*
X126250000Y-112730366D01*
X126039670Y-112415585D01*
X125553489Y-112090729D01*
X124980000Y-111976655D01*
X124406511Y-112090729D01*
X123920330Y-112415585D01*
X123713539Y-112725069D01*
X123342036Y-112309268D01*
X122814791Y-112055291D01*
X122799026Y-112052642D01*
X122567000Y-112173783D01*
X122567000Y-113533000D01*
X122587000Y-113533000D01*
X122587000Y-113787000D01*
X122567000Y-113787000D01*
X122567000Y-113807000D01*
X122313000Y-113807000D01*
X122313000Y-113787000D01*
X122293000Y-113787000D01*
X122293000Y-113533000D01*
X122313000Y-113533000D01*
X122313000Y-112173783D01*
X122080974Y-112052642D01*
X122065209Y-112055291D01*
X121537964Y-112309268D01*
X121166461Y-112725069D01*
X120959670Y-112415585D01*
X120473489Y-112090729D01*
X119900000Y-111976655D01*
X119326511Y-112090729D01*
X118840330Y-112415585D01*
X118630000Y-112730366D01*
X118419670Y-112415585D01*
X117933489Y-112090729D01*
X117360000Y-111976655D01*
X116786511Y-112090729D01*
X116300330Y-112415585D01*
X116090000Y-112730366D01*
X115879670Y-112415585D01*
X115393489Y-112090729D01*
X114820000Y-111976655D01*
X114246511Y-112090729D01*
X113760330Y-112415585D01*
X113550000Y-112730366D01*
X113339670Y-112415585D01*
X112853489Y-112090729D01*
X112280000Y-111976655D01*
X111706511Y-112090729D01*
X111220330Y-112415585D01*
X111010000Y-112730366D01*
X110799670Y-112415585D01*
X110313489Y-112090729D01*
X109740000Y-111976655D01*
X109166511Y-112090729D01*
X108680330Y-112415585D01*
X108470000Y-112730366D01*
X108259670Y-112415585D01*
X107773489Y-112090729D01*
X107200000Y-111976655D01*
X106626511Y-112090729D01*
X106140330Y-112415585D01*
X105815474Y-112901766D01*
X105701400Y-113475255D01*
X105701400Y-113844745D01*
X105815474Y-114418234D01*
X106130698Y-114890000D01*
X101510000Y-114890000D01*
X101510000Y-110352163D01*
X108867443Y-110352163D01*
X108966042Y-110618965D01*
X109575582Y-110845401D01*
X110225377Y-110821341D01*
X110713958Y-110618965D01*
X110812557Y-110352163D01*
X109840000Y-109379605D01*
X108867443Y-110352163D01*
X101510000Y-110352163D01*
X101510000Y-108935582D01*
X108194599Y-108935582D01*
X108218659Y-109585377D01*
X108421035Y-110073958D01*
X108687837Y-110172557D01*
X109660395Y-109200000D01*
X110019605Y-109200000D01*
X110992163Y-110172557D01*
X111258965Y-110073958D01*
X111485401Y-109464418D01*
X111461341Y-108814623D01*
X111258965Y-108326042D01*
X110992163Y-108227443D01*
X110019605Y-109200000D01*
X109660395Y-109200000D01*
X108687837Y-108227443D01*
X108421035Y-108326042D01*
X108194599Y-108935582D01*
X101510000Y-108935582D01*
X101510000Y-108047837D01*
X108867443Y-108047837D01*
X109840000Y-109020395D01*
X110812557Y-108047837D01*
X110713958Y-107781035D01*
X110104418Y-107554599D01*
X109454623Y-107578659D01*
X108966042Y-107781035D01*
X108867443Y-108047837D01*
X101510000Y-108047837D01*
X101510000Y-89610000D01*
X106103971Y-89610000D01*
X105815474Y-90041766D01*
X105815474Y-90041766D01*
G37*
X105815474Y-90041766D02*
X105701400Y-90615255D01*
X105701400Y-90984745D01*
X105815474Y-91558234D01*
X105965000Y-91782015D01*
X105965000Y-93248446D01*
X104770886Y-94442560D01*
X103330000Y-94442560D01*
X103094683Y-94486838D01*
X102878559Y-94625910D01*
X102733569Y-94838110D01*
X102682560Y-95090000D01*
X102682560Y-97630000D01*
X102726838Y-97865317D01*
X102865910Y-98081441D01*
X103078110Y-98226431D01*
X103330000Y-98277440D01*
X105870000Y-98277440D01*
X106105317Y-98233162D01*
X106321441Y-98094090D01*
X106466431Y-97881890D01*
X106517440Y-97630000D01*
X106517440Y-97595000D01*
X106748446Y-97595000D01*
X109283847Y-100130401D01*
X109482757Y-100611800D01*
X109751072Y-100880583D01*
X109664683Y-100896838D01*
X109448559Y-101035910D01*
X109428683Y-101065000D01*
X106505328Y-101065000D01*
X106505330Y-101062735D01*
X106215922Y-100362314D01*
X105680505Y-99825961D01*
X104980590Y-99535332D01*
X104222735Y-99534670D01*
X103522314Y-99824078D01*
X102985961Y-100359495D01*
X102695332Y-101059410D01*
X102694670Y-101817265D01*
X102984078Y-102517686D01*
X103519495Y-103054039D01*
X103603556Y-103088944D01*
X103726723Y-103273277D01*
X106626723Y-106173277D01*
X107027386Y-106440991D01*
X107500000Y-106535000D01*
X113823342Y-106535000D01*
X113972927Y-106684846D01*
X114573453Y-106934206D01*
X115223694Y-106934774D01*
X115764686Y-106711240D01*
X118365411Y-109311965D01*
X118365226Y-109523694D01*
X118613538Y-110124655D01*
X119072927Y-110584846D01*
X119673453Y-110834206D01*
X120323694Y-110834774D01*
X120924655Y-110586462D01*
X121076381Y-110435000D01*
X127733711Y-110435000D01*
X128213453Y-110634206D01*
X128863694Y-110634774D01*
X129464655Y-110386462D01*
X129924846Y-109927073D01*
X130174206Y-109326547D01*
X130174774Y-108676306D01*
X129926462Y-108075345D01*
X129467073Y-107615154D01*
X128866547Y-107365794D01*
X128216306Y-107365226D01*
X127615345Y-107613538D01*
X127263269Y-107965000D01*
X121885000Y-107965000D01*
X121885000Y-101240984D01*
X135170590Y-101240984D01*
X135890000Y-101960395D01*
X136609410Y-101240984D01*
X136553729Y-101010389D01*
X136070922Y-100842378D01*
X135560572Y-100871917D01*
X135226271Y-101010389D01*
X135170590Y-101240984D01*
X121885000Y-101240984D01*
X121885000Y-100043691D01*
X143995000Y-100043691D01*
X143995000Y-101154250D01*
X144153750Y-101313000D01*
X145773000Y-101313000D01*
X145773000Y-99693750D01*
X146027000Y-99693750D01*
X146027000Y-101313000D01*
X147646250Y-101313000D01*
X147805000Y-101154250D01*
X147805000Y-100043691D01*
X147708327Y-99810302D01*
X147529699Y-99631673D01*
X147296310Y-99535000D01*
X146185750Y-99535000D01*
X146027000Y-99693750D01*
X145773000Y-99693750D01*
X145614250Y-99535000D01*
X144503690Y-99535000D01*
X144270301Y-99631673D01*
X144091673Y-99810302D01*
X143995000Y-100043691D01*
X121885000Y-100043691D01*
X121885000Y-99064669D01*
X121901441Y-99054090D01*
X122046431Y-98841890D01*
X122097440Y-98590000D01*
X122097440Y-96990000D01*
X122053162Y-96754683D01*
X121914090Y-96538559D01*
X121907452Y-96534023D01*
X122096965Y-96006777D01*
X122069778Y-95436546D01*
X121903864Y-95035995D01*
X121657745Y-94961861D01*
X120829605Y-95790000D01*
X120843748Y-95804142D01*
X120664143Y-95983748D01*
X120650000Y-95969605D01*
X120635858Y-95983748D01*
X120456252Y-95804142D01*
X120470395Y-95790000D01*
X119642255Y-94961861D01*
X119396136Y-95035995D01*
X119203035Y-95573223D01*
X119230222Y-96143454D01*
X119392384Y-96534947D01*
X119253569Y-96738110D01*
X119202560Y-96990000D01*
X119202560Y-98590000D01*
X119246838Y-98825317D01*
X119385910Y-99041441D01*
X119415000Y-99061317D01*
X119415000Y-106868446D01*
X116873277Y-104326723D01*
X116826209Y-104295273D01*
X116790628Y-104251247D01*
X116627262Y-104162341D01*
X116472614Y-104059009D01*
X116417094Y-104047965D01*
X116367372Y-104020906D01*
X116182418Y-104001285D01*
X116000000Y-103965000D01*
X115944480Y-103976044D01*
X115888188Y-103970072D01*
X115882419Y-103970596D01*
X115827073Y-103915154D01*
X115226547Y-103665794D01*
X114576306Y-103665226D01*
X113975345Y-103913538D01*
X113823619Y-104065000D01*
X108011554Y-104065000D01*
X107481554Y-103535000D01*
X109425331Y-103535000D01*
X109435910Y-103551441D01*
X109648110Y-103696431D01*
X109900000Y-103747440D01*
X111500000Y-103747440D01*
X111735317Y-103703162D01*
X111951441Y-103564090D01*
X112096431Y-103351890D01*
X112147440Y-103100000D01*
X112147440Y-101500000D01*
X112103162Y-101264683D01*
X111964090Y-101048559D01*
X111751890Y-100903569D01*
X111646959Y-100882320D01*
X111915824Y-100613923D01*
X112134750Y-100086691D01*
X112135248Y-99515813D01*
X111917243Y-98988200D01*
X111513923Y-98584176D01*
X111029637Y-98383083D01*
X110241554Y-97595000D01*
X113680000Y-97595000D01*
X114152614Y-97500991D01*
X114553277Y-97233277D01*
X115011965Y-96774589D01*
X115223694Y-96774774D01*
X115824655Y-96526462D01*
X116284846Y-96067073D01*
X116534206Y-95466547D01*
X116534774Y-94816306D01*
X116520705Y-94782255D01*
X119821861Y-94782255D01*
X120650000Y-95610395D01*
X121478139Y-94782255D01*
X121404005Y-94536136D01*
X120866777Y-94343035D01*
X120296546Y-94370222D01*
X119895995Y-94536136D01*
X119821861Y-94782255D01*
X116520705Y-94782255D01*
X116286462Y-94215345D01*
X115827073Y-93755154D01*
X115226547Y-93505794D01*
X114576306Y-93505226D01*
X113975345Y-93753538D01*
X113515154Y-94212927D01*
X113265794Y-94813453D01*
X113265607Y-95027839D01*
X113168446Y-95125000D01*
X107581554Y-95125000D01*
X108073277Y-94633277D01*
X108340991Y-94232614D01*
X108435000Y-93760000D01*
X108435000Y-91782015D01*
X108470000Y-91729634D01*
X108680330Y-92044415D01*
X109166511Y-92369271D01*
X109740000Y-92483345D01*
X110313489Y-92369271D01*
X110799670Y-92044415D01*
X111010000Y-91729634D01*
X111220330Y-92044415D01*
X111706511Y-92369271D01*
X112280000Y-92483345D01*
X112853489Y-92369271D01*
X113339670Y-92044415D01*
X113550000Y-91729634D01*
X113760330Y-92044415D01*
X114246511Y-92369271D01*
X114820000Y-92483345D01*
X115393489Y-92369271D01*
X115879670Y-92044415D01*
X116090000Y-91729634D01*
X116300330Y-92044415D01*
X116786511Y-92369271D01*
X117360000Y-92483345D01*
X117933489Y-92369271D01*
X118419670Y-92044415D01*
X118630000Y-91729634D01*
X118840330Y-92044415D01*
X119326511Y-92369271D01*
X119900000Y-92483345D01*
X120473489Y-92369271D01*
X120959670Y-92044415D01*
X121170000Y-91729634D01*
X121380330Y-92044415D01*
X121866511Y-92369271D01*
X122440000Y-92483345D01*
X123013489Y-92369271D01*
X123499670Y-92044415D01*
X123710000Y-91729634D01*
X123920330Y-92044415D01*
X124406511Y-92369271D01*
X124980000Y-92483345D01*
X125553489Y-92369271D01*
X126039670Y-92044415D01*
X126250000Y-91729634D01*
X126460330Y-92044415D01*
X126946511Y-92369271D01*
X127520000Y-92483345D01*
X128093489Y-92369271D01*
X128579670Y-92044415D01*
X128786461Y-91734931D01*
X129157964Y-92150732D01*
X129685209Y-92404709D01*
X129700974Y-92407358D01*
X129933000Y-92286217D01*
X129933000Y-90927000D01*
X129913000Y-90927000D01*
X129913000Y-90673000D01*
X129933000Y-90673000D01*
X129933000Y-90653000D01*
X130187000Y-90653000D01*
X130187000Y-90673000D01*
X130207000Y-90673000D01*
X130207000Y-90927000D01*
X130187000Y-90927000D01*
X130187000Y-92286217D01*
X130419026Y-92407358D01*
X130434791Y-92404709D01*
X130962036Y-92150732D01*
X131333539Y-91734931D01*
X131540330Y-92044415D01*
X132026511Y-92369271D01*
X132600000Y-92483345D01*
X133173489Y-92369271D01*
X133659670Y-92044415D01*
X133870000Y-91729634D01*
X134080330Y-92044415D01*
X134566511Y-92369271D01*
X135140000Y-92483345D01*
X135713489Y-92369271D01*
X136199670Y-92044415D01*
X136410000Y-91729634D01*
X136620330Y-92044415D01*
X137106511Y-92369271D01*
X137680000Y-92483345D01*
X138253489Y-92369271D01*
X138739670Y-92044415D01*
X138946461Y-91734931D01*
X139317964Y-92150732D01*
X139845209Y-92404709D01*
X139860974Y-92407358D01*
X140093000Y-92286217D01*
X140093000Y-90927000D01*
X140073000Y-90927000D01*
X140073000Y-90673000D01*
X140093000Y-90673000D01*
X140093000Y-90653000D01*
X140347000Y-90653000D01*
X140347000Y-90673000D01*
X140367000Y-90673000D01*
X140367000Y-90927000D01*
X140347000Y-90927000D01*
X140347000Y-92286217D01*
X140579026Y-92407358D01*
X140594791Y-92404709D01*
X141122036Y-92150732D01*
X141493539Y-91734931D01*
X141525000Y-91782015D01*
X141525000Y-93220000D01*
X141619009Y-93692614D01*
X141886723Y-94093277D01*
X143995138Y-96201692D01*
X143994670Y-96737265D01*
X144284078Y-97437686D01*
X144819495Y-97974039D01*
X145519410Y-98264668D01*
X146277265Y-98265330D01*
X146977686Y-97975922D01*
X147514039Y-97440505D01*
X147804668Y-96740590D01*
X147805330Y-95982735D01*
X147515922Y-95282314D01*
X146980505Y-94745961D01*
X146280590Y-94455332D01*
X145741415Y-94454861D01*
X143995000Y-92708446D01*
X143995000Y-91782015D01*
X144144526Y-91558234D01*
X144258600Y-90984745D01*
X144258600Y-90615255D01*
X144144526Y-90041766D01*
X143856029Y-89610000D01*
X149090000Y-89610000D01*
X149090000Y-114890000D01*
X143829302Y-114890000D01*
X144144526Y-114418234D01*
X144258600Y-113844745D01*
X144258600Y-113475255D01*
X144144526Y-112901766D01*
X143995000Y-112677985D01*
X143995000Y-110960000D01*
X143900991Y-110487386D01*
X143633277Y-110086723D01*
X141673277Y-108126723D01*
X141272614Y-107859009D01*
X140800000Y-107765000D01*
X139776658Y-107765000D01*
X139627073Y-107615154D01*
X139026547Y-107365794D01*
X138812161Y-107365607D01*
X137125000Y-105678446D01*
X137125000Y-105058620D01*
X137136431Y-105041890D01*
X137187440Y-104790000D01*
X137187440Y-103490000D01*
X137143162Y-103254683D01*
X137004090Y-103038559D01*
X136890671Y-102961063D01*
X136789018Y-102859410D01*
X137019611Y-102803729D01*
X137187622Y-102320922D01*
X137158083Y-101810572D01*
X137122949Y-101725750D01*
X143995000Y-101725750D01*
X143995000Y-102836309D01*
X144091673Y-103069698D01*
X144270301Y-103248327D01*
X144503690Y-103345000D01*
X145614250Y-103345000D01*
X145773000Y-103186250D01*
X145773000Y-101567000D01*
X146027000Y-101567000D01*
X146027000Y-103186250D01*
X146185750Y-103345000D01*
X147296310Y-103345000D01*
X147529699Y-103248327D01*
X147708327Y-103069698D01*
X147805000Y-102836309D01*
X147805000Y-101725750D01*
X147646250Y-101567000D01*
X146027000Y-101567000D01*
X145773000Y-101567000D01*
X144153750Y-101567000D01*
X143995000Y-101725750D01*
X137122949Y-101725750D01*
X137019611Y-101476271D01*
X136789016Y-101420590D01*
X136069605Y-102140000D01*
X136083748Y-102154142D01*
X135904142Y-102333748D01*
X135890000Y-102319605D01*
X135875858Y-102333748D01*
X135696252Y-102154142D01*
X135710395Y-102140000D01*
X134990984Y-101420590D01*
X134760389Y-101476271D01*
X134592378Y-101959078D01*
X134621917Y-102469428D01*
X134760389Y-102803729D01*
X134990982Y-102859410D01*
X134889320Y-102961072D01*
X134788559Y-103025910D01*
X134643569Y-103238110D01*
X134592560Y-103490000D01*
X134592560Y-104790000D01*
X134636838Y-105025317D01*
X134655000Y-105053542D01*
X134655000Y-106190000D01*
X134749009Y-106662614D01*
X135016723Y-107063277D01*
X137065411Y-109111965D01*
X137065226Y-109323694D01*
X137313538Y-109924655D01*
X137772927Y-110384846D01*
X138373453Y-110634206D01*
X139023694Y-110634774D01*
X139624655Y-110386462D01*
X139776381Y-110235000D01*
X140288446Y-110235000D01*
X141525000Y-111471554D01*
X141525000Y-112677985D01*
X141493539Y-112725069D01*
X141122036Y-112309268D01*
X140594791Y-112055291D01*
X140579026Y-112052642D01*
X140347000Y-112173783D01*
X140347000Y-113533000D01*
X140367000Y-113533000D01*
X140367000Y-113787000D01*
X140347000Y-113787000D01*
X140347000Y-113807000D01*
X140093000Y-113807000D01*
X140093000Y-113787000D01*
X140073000Y-113787000D01*
X140073000Y-113533000D01*
X140093000Y-113533000D01*
X140093000Y-112173783D01*
X139860974Y-112052642D01*
X139845209Y-112055291D01*
X139317964Y-112309268D01*
X138946461Y-112725069D01*
X138739670Y-112415585D01*
X138253489Y-112090729D01*
X137680000Y-111976655D01*
X137106511Y-112090729D01*
X136620330Y-112415585D01*
X136410000Y-112730366D01*
X136199670Y-112415585D01*
X135713489Y-112090729D01*
X135140000Y-111976655D01*
X134566511Y-112090729D01*
X134080330Y-112415585D01*
X133870000Y-112730366D01*
X133659670Y-112415585D01*
X133173489Y-112090729D01*
X132600000Y-111976655D01*
X132026511Y-112090729D01*
X131540330Y-112415585D01*
X131330000Y-112730366D01*
X131119670Y-112415585D01*
X130633489Y-112090729D01*
X130060000Y-111976655D01*
X129486511Y-112090729D01*
X129000330Y-112415585D01*
X128790000Y-112730366D01*
X128579670Y-112415585D01*
X128093489Y-112090729D01*
X127520000Y-111976655D01*
X126946511Y-112090729D01*
X126460330Y-112415585D01*
X126250000Y-112730366D01*
X126039670Y-112415585D01*
X125553489Y-112090729D01*
X124980000Y-111976655D01*
X124406511Y-112090729D01*
X123920330Y-112415585D01*
X123713539Y-112725069D01*
X123342036Y-112309268D01*
X122814791Y-112055291D01*
X122799026Y-112052642D01*
X122567000Y-112173783D01*
X122567000Y-113533000D01*
X122587000Y-113533000D01*
X122587000Y-113787000D01*
X122567000Y-113787000D01*
X122567000Y-113807000D01*
X122313000Y-113807000D01*
X122313000Y-113787000D01*
X122293000Y-113787000D01*
X122293000Y-113533000D01*
X122313000Y-113533000D01*
X122313000Y-112173783D01*
X122080974Y-112052642D01*
X122065209Y-112055291D01*
X121537964Y-112309268D01*
X121166461Y-112725069D01*
X120959670Y-112415585D01*
X120473489Y-112090729D01*
X119900000Y-111976655D01*
X119326511Y-112090729D01*
X118840330Y-112415585D01*
X118630000Y-112730366D01*
X118419670Y-112415585D01*
X117933489Y-112090729D01*
X117360000Y-111976655D01*
X116786511Y-112090729D01*
X116300330Y-112415585D01*
X116090000Y-112730366D01*
X115879670Y-112415585D01*
X115393489Y-112090729D01*
X114820000Y-111976655D01*
X114246511Y-112090729D01*
X113760330Y-112415585D01*
X113550000Y-112730366D01*
X113339670Y-112415585D01*
X112853489Y-112090729D01*
X112280000Y-111976655D01*
X111706511Y-112090729D01*
X111220330Y-112415585D01*
X111010000Y-112730366D01*
X110799670Y-112415585D01*
X110313489Y-112090729D01*
X109740000Y-111976655D01*
X109166511Y-112090729D01*
X108680330Y-112415585D01*
X108470000Y-112730366D01*
X108259670Y-112415585D01*
X107773489Y-112090729D01*
X107200000Y-111976655D01*
X106626511Y-112090729D01*
X106140330Y-112415585D01*
X105815474Y-112901766D01*
X105701400Y-113475255D01*
X105701400Y-113844745D01*
X105815474Y-114418234D01*
X106130698Y-114890000D01*
X101510000Y-114890000D01*
X101510000Y-110352163D01*
X108867443Y-110352163D01*
X108966042Y-110618965D01*
X109575582Y-110845401D01*
X110225377Y-110821341D01*
X110713958Y-110618965D01*
X110812557Y-110352163D01*
X109840000Y-109379605D01*
X108867443Y-110352163D01*
X101510000Y-110352163D01*
X101510000Y-108935582D01*
X108194599Y-108935582D01*
X108218659Y-109585377D01*
X108421035Y-110073958D01*
X108687837Y-110172557D01*
X109660395Y-109200000D01*
X110019605Y-109200000D01*
X110992163Y-110172557D01*
X111258965Y-110073958D01*
X111485401Y-109464418D01*
X111461341Y-108814623D01*
X111258965Y-108326042D01*
X110992163Y-108227443D01*
X110019605Y-109200000D01*
X109660395Y-109200000D01*
X108687837Y-108227443D01*
X108421035Y-108326042D01*
X108194599Y-108935582D01*
X101510000Y-108935582D01*
X101510000Y-108047837D01*
X108867443Y-108047837D01*
X109840000Y-109020395D01*
X110812557Y-108047837D01*
X110713958Y-107781035D01*
X110104418Y-107554599D01*
X109454623Y-107578659D01*
X108966042Y-107781035D01*
X108867443Y-108047837D01*
X101510000Y-108047837D01*
X101510000Y-89610000D01*
X106103971Y-89610000D01*
X105815474Y-90041766D01*
M02*
